# xmcd CD database file
#
# Track frame offsets:
#	150
#	15289
#	32020
#	51901
#	73022
#	102229
#	120316
#	140093
#	163597
#	181907
#	198891
#	215401
#	231901
#	248066
#	267962
#	283824
#	305078
#
# Disc length: 4288 seconds
#
# Revision: 3
# Processed by: cddbd v1.4PL0 Copyright (c) Steve Scherf et al.
# Submitted via: CDex 1.40Beta8
#
DISCID=f210be11
DTITLE=Artist - Pop and Rock volume 2
DYEAR=1900
DGENRE=Rock
TTITLE0=Road Trippin
TTITLE1=Again
TTITLE2=Love is blind
TTITLE3=Iris
TTITLE4=Nothing man's lyrics
TTITLE5=Put your light on
TTITLE6=Painted of my heart
TTITLE7=Take a look around
TTITLE8=Whicked games
TTITLE9=Generator
TTITLE10=Original prankster
TTITLE11=Warning
TTITLE12=You're a god
TTITLE13=I disappear
TTITLE14=Stop the Rock
TTITLE15=The real slim shady
TTITLE16=Light my fire
EXTD=ID3G: 17
EXTT0=
EXTT1=
EXTT2=
EXTT3=
EXTT4=
EXTT5=
EXTT6=
EXTT7=
EXTT8=
EXTT9=
EXTT10=
EXTT11=
EXTT12=
EXTT13=
EXTT14=
EXTT15=
EXTT16=
PLAYORDER=
